<?xml version="1.0" encoding="utf-8"?>
<!-- Generator: Adobe Illustrator 27.3.1, SVG Export Plug-In . SVG Version: 6.00 Build 0)  -->
<svg version="1.1" id="Layer_1" xmlns="http://www.w3.org/2000/svg" xmlns:xlink="http://www.w3.org/1999/xlink" x="0px" y="0px"
	 viewBox="0 0 1815.02 1430.47" style="enable-background:new 0 0 1815.02 1430.47;" xml:space="preserve">
<style type="text/css">
	.st0{fill:#FFFFFF;}
</style>
<g>
	<path class="st0" d="M1193.12,1112.61l610.03-862.27H881.05l152.03,107.44c27,19.08,59.24,29.32,92.3,29.32h413.48l-612.73,866.07
		l-110.45,156.12h514.56l-137.13-193.85C1171.32,1184.63,1171.32,1143.42,1193.12,1112.61z"/>
	<path class="st0" d="M826.3,1165.08L275.92,387.1h666.75L424.93,21.21v164.69c0,35.59-28.85,64.43-64.43,64.43H11.63l765.3,1081.75
		l49.38-69.79C846.91,1233.17,846.91,1194.21,826.3,1165.08z"/>
	<polygon class="st0" points="1387.01,466.35 427.77,466.35 907.39,1144.27 982.9,1037.54 810.24,793.5 1155.56,793.5 
		1242.78,670.21 723.02,670.21 666.01,589.63 1299.79,589.63 	"/>
</g>
</svg>
